<?xml version="1.0" encoding="UTF-8" standalone="no"?>
<!DOCTYPE svg PUBLIC "-//W3C//DTD SVG 1.1//EN" "http://www.w3.org/Graphics/SVG/1.1/DTD/svg11.dtd">
<svg version="1.1" xmlns="http://www.w3.org/2000/svg" xmlns:xlink="http://www.w3.org/1999/xlink" preserveAspectRatio="xMidYMid meet" viewBox="0 0 640 640" width="640" height="640"><defs><path d="M50.46 50.46L589.54 50.46L589.54 589.54L50.46 589.54L50.46 50.46Z" id="aK08fwots"></path><linearGradient id="gradienta1efZnaQv7" gradientUnits="userSpaceOnUse" x1="320" y1="50.46" x2="320" y2="589.54"><stop style="stop-color: #e4553f;stop-opacity: 1" offset="0%"></stop><stop style="stop-color: #e6791f;stop-opacity: 1" offset="100%"></stop></linearGradient><path d="M409.07 132.35L409.09 131.76L409.12 131.16L409.18 130.58L409.26 130L409.37 129.43L409.5 128.87L409.64 128.31L409.81 127.77L410 127.23L410.21 126.71L410.45 126.19L410.69 125.68L410.96 125.19L411.25 124.71L411.55 124.24L411.88 123.78L412.21 123.34L412.57 122.91L412.94 122.49L413.33 122.09L413.73 121.7L414.15 121.33L414.58 120.98L415.02 120.64L415.48 120.32L415.95 120.01L416.43 119.72L416.92 119.46L417.43 119.21L417.94 118.98L418.47 118.77L419.01 118.58L419.55 118.41L420.11 118.26L420.67 118.13L421.24 118.02L421.82 117.94L422.4 117.88L423 117.85L423.59 117.83L481.67 117.83L482.27 117.85L482.86 117.88L483.45 117.94L484.03 118.02L484.6 118.13L485.16 118.26L485.72 118.41L486.26 118.58L486.8 118.77L487.32 118.98L487.84 119.21L488.34 119.46L488.84 119.72L489.32 120.01L489.79 120.32L490.25 120.64L490.69 120.98L491.12 121.33L491.54 121.7L491.94 122.09L492.33 122.49L492.7 122.91L493.05 123.34L493.39 123.78L493.71 124.24L494.02 124.71L494.3 125.19L494.57 125.68L494.82 126.19L495.05 126.71L495.26 127.23L495.45 127.77L495.62 128.31L495.77 128.87L495.9 129.43L496 130L496.09 130.58L496.15 131.16L496.18 131.76L496.19 132.35L496.19 284.82L554.27 350.16L496.19 350.16L496.19 553.44L366.91 553.44L366.91 553.4L366.92 552.76L366.92 411.73L366.91 411.08L366.87 410.45L366.81 409.81L366.72 409.19L366.61 408.57L366.48 407.97L366.33 407.37L366.15 406.78L365.96 406.2L365.74 405.63L365.5 405.08L365.24 404.53L364.97 404L364.67 403.48L364.36 402.97L364.02 402.48L363.67 402L363.31 401.53L362.92 401.09L362.53 400.65L362.11 400.23L361.68 399.83L361.24 399.45L360.78 399.09L360.31 398.74L359.82 398.41L359.32 398.1L358.81 397.81L358.29 397.54L357.76 397.29L357.22 397.07L356.66 396.86L356.1 396.68L355.53 396.52L354.95 396.38L354.36 396.27L353.76 396.18L353.16 396.11L352.55 396.07L351.93 396.06L291.97 396.06L291.36 396.07L290.75 396.11L290.14 396.18L289.54 396.27L288.96 396.38L288.37 396.52L287.8 396.68L287.24 396.86L286.69 397.07L286.14 397.29L285.61 397.54L285.09 397.81L284.58 398.1L284.08 398.41L283.6 398.74L283.13 399.09L282.67 399.45L282.22 399.83L281.79 400.23L281.38 400.65L280.98 401.09L280.6 401.53L280.23 402L279.88 402.48L279.55 402.97L279.23 403.48L278.94 404L278.66 404.53L278.4 405.08L278.16 405.63L277.95 406.2L277.75 406.78L277.58 407.37L277.42 407.97L277.29 408.57L277.18 409.19L277.1 409.81L277.04 410.45L277 411.08L276.99 411.73L276.99 552.76L277 553.4L277 553.44L147.71 553.44L147.71 350.16L89.63 350.16L321.95 88.79L409.07 186.81L409.07 132.35Z" id="e7sCm6abz"></path></defs><g><g><g><use xlink:href="#aK08fwots" opacity="1" fill="url(#gradienta1efZnaQv7)"></use></g><g><use xlink:href="#e7sCm6abz" opacity="1" fill="#ffffff" fill-opacity="1"></use></g></g></g></svg>